<?xml version="1.0" encoding="utf-8"?>
<!DOCTYPE svg PUBLIC "-//W3C//DTD SVG 1.1//EN" "http://www.w3.org/Graphics/SVG/1.1/DTD/svg11.dtd">
<svg version="1.1" id="Ebene_1" xmlns="http://www.w3.org/2000/svg" xmlns:xlink="http://www.w3.org/1999/xlink" x="0px" y="0px"
	 width="484.265px" height="484.352px" viewBox="0 0 484.265 484.352" enable-background="new 0 0 484.265 484.352"
	 xml:space="preserve">
<g>
	<path fill-rule="evenodd" clip-rule="evenodd" fill="#EC6708" d="M437.651,99.024c1.569,2.242,3.156,4.472,4.706,6.727
		c6.621,9.634,12.472,19.727,17.6,30.223c3.957,8.101,7.412,16.424,10.446,24.922c3.348,9.374,6.076,18.925,8.233,28.63
		c1.158,5.209,2.005,10.492,2.854,15.764c0.698,4.339,1.321,8.699,1.741,13.072c0.42,4.375,0.645,8.775,0.776,13.17
		c0.181,6.007,0.312,12.02,0.236,18.027c-0.057,4.521-0.37,9.047-0.755,13.555c-0.371,4.347-0.843,8.693-1.517,13.001
		c-0.856,5.48-1.92,10.931-2.966,16.379c-1.868,9.734-4.511,19.274-7.885,28.58c-2.613,7.206-5.572,14.293-8.55,21.36
		c-3.205,7.61-7.162,14.852-11.339,21.97c-4.762,8.116-9.974,15.93-15.648,23.439c-4.892,6.475-9.986,12.78-15.634,18.608
		c-4.941,5.099-9.856,10.245-15.087,15.04c-11.401,10.455-23.776,19.666-37.012,27.681c-10.149,6.145-20.616,11.715-31.665,16.08
		c-7.329,2.896-14.674,5.831-22.2,8.128c-8.025,2.448-16.248,4.283-24.436,6.157c-4.718,1.08-9.527,1.787-14.317,2.515
		c-3.209,0.486-6.452,0.772-9.688,1.041c-3.828,0.318-7.664,0.541-11.498,0.766c-2.173,0.128-4.35,0.169-6.525,0.26
		c-1.795,0.075-3.591,0.246-5.386,0.232c-3.48-0.025-6.962-0.089-10.438-0.253c-3.832-0.18-7.677-0.327-11.482-0.779
		c-6.631-0.788-13.253-1.693-19.849-2.738c-12.996-2.061-25.65-5.497-38.068-9.823c-8.361-2.912-16.524-6.293-24.519-10.103
		c-10.23-4.874-20.112-10.37-29.463-16.755c-6.118-4.178-12.059-8.629-17.926-13.155c-7.872-6.072-15.169-12.815-22.021-20.012
		c-4.239-4.453-8.408-9.002-12.259-13.789c-5.186-6.446-10.206-13.043-14.971-19.806c-3.441-4.883-6.55-10.029-9.45-15.258
		c-3.548-6.396-6.909-12.912-10.013-19.535c-4.419-9.432-8.194-19.147-11.033-29.174c-2.174-7.679-4.042-15.45-5.825-23.231
		c-1.071-4.678-1.828-9.437-2.517-14.188c-0.591-4.078-0.968-8.192-1.288-12.303c-0.35-4.5-0.589-9.013-0.759-13.523
		c-0.167-4.443-0.32-8.894-0.233-13.336c0.097-4.887,0.37-9.776,0.761-14.649c0.359-4.486,0.802-8.979,1.52-13.418
		c1.125-6.951,2.35-13.894,3.831-20.776c1.926-8.948,4.475-17.745,7.657-26.33c2.291-6.18,4.785-12.291,7.387-18.348
		c1.885-4.389,3.898-8.748,6.205-12.925c3.654-6.617,7.407-13.197,11.481-19.56c3.758-5.867,7.878-11.514,12.06-17.092
		c2.897-3.864,6.072-7.534,9.299-11.133c3.919-4.371,7.872-8.731,12.086-12.811c4.868-4.712,9.992-9.166,15.086-13.638
		c7.528-6.608,15.667-12.426,24.133-17.743c6.297-3.955,12.841-7.528,19.352-11.13c8.787-4.861,18.035-8.73,27.437-12.211
		c8.972-3.322,18.107-6.156,27.44-8.283c5.17-1.178,10.374-2.228,15.594-3.158c4.531-0.807,9.098-1.445,13.667-2.003
		c3.266-0.399,6.559-0.646,9.847-0.781c6.584-0.271,13.173-0.51,19.762-0.587c4.364-0.051,8.74,0.061,13.094,0.354
		c5.194,0.351,10.406,0.743,15.545,1.535c7.734,1.191,15.442,2.598,23.104,4.194c5.415,1.129,10.733,2.728,16.098,4.109
		c0.795,0.205,1.327,0.608,1.432,1.489c0.137,1.154,0.467,2.302,0.466,3.452c-0.01,8.329-0.114,16.657-0.127,24.985
		c-0.047,30.922-0.07,61.844-0.103,92.766c-0.001,1.571,0.006,3.143-0.005,4.714c-0.001,0.158-0.084,0.319-0.147,0.471
		c-0.905,2.19-1.188,2.138-3.068,0.823c-4.047-2.829-8.138-5.611-12.354-8.179c-5.485-3.34-11.424-5.798-17.521-7.729
		c-5.24-1.659-10.615-2.934-15.988-4.113c-3.799-0.833-7.679-1.379-11.552-1.769c-4.329-0.437-8.688-0.725-13.037-0.76
		c-4.689-0.038-9.408,0.039-14.068,0.513c-10.498,1.069-20.612,3.703-30.302,7.978c-9.244,4.078-17.722,9.395-25.455,15.823
		c-4.657,3.872-9.1,8.06-13.241,12.479c-5.669,6.049-10.473,12.79-14.479,20.089c-3.207,5.842-5.92,11.881-8.072,18.187
		c-2.16,6.327-3.686,12.812-4.684,19.403c-0.579,3.823-0.736,7.71-1.063,11.57c-0.116,1.371-0.221,2.746-0.249,4.12
		c-0.119,5.983,0.288,11.936,0.979,17.88c0.845,7.272,2.246,14.426,4.305,21.445c3.469,11.825,9.201,22.517,16.597,32.314
		c2.434,3.225,5.203,6.202,7.902,9.218c7.209,8.053,15.658,14.629,24.839,20.24c10.189,6.228,21.079,10.903,32.776,13.465
		c4.647,1.018,9.377,1.765,14.109,2.258c4.321,0.45,8.702,0.62,13.044,0.496c4.322-0.125,8.636-0.718,12.942-1.197
		c8.952-0.996,17.627-3.194,26.051-6.339c10.462-3.906,20.106-9.298,28.971-16.116c5.365-4.127,10.382-8.63,14.993-13.56
		c6.129-6.553,11.871-13.443,16.388-21.237c4.587-7.911,7.846-16.383,9.87-25.297c1-4.402,1.803-8.856,2.503-13.316
		c0.451-2.876,0.604-5.804,0.796-8.714c0.227-3.426,0.361-6.859,0.518-10.29c0.102-2.218,0.232-4.437,0.243-6.655
		c0.1-20.691,0.256-41.382,0.243-62.073c-0.028-42.906-0.15-85.811-0.233-128.717c-0.001-0.489-0.001-0.978-0.001-1.698
		c1.983,1.098,3.841,2.014,5.584,3.112c6.399,4.03,12.83,8.019,19.113,12.226c4.01,2.686,7.781,5.727,11.658,8.61
		c1.685,1.253,1.552,3.182,1.582,4.899c0.105,6.097,0.041,12.197,0.041,18.295c0,58.987,0.03,117.974-0.055,176.961
		c-0.007,4.945-0.627,9.908-1.225,14.832c-1.382,11.398-4.74,22.261-9.193,32.817c-3.489,8.272-7.659,16.186-12.613,23.655
		c-3.554,5.358-7.354,10.561-11.196,15.719c-1.771,2.376-3.864,4.518-5.886,6.697c-2.254,2.429-4.531,4.843-6.906,7.151
		c-4.799,4.664-9.96,8.908-15.387,12.821c-7.475,5.39-15.413,10.018-23.767,13.886c-8.399,3.889-17.043,7.18-26.051,9.392
		c-5.827,1.432-11.683,2.762-17.561,3.963c-2.801,0.572-5.69,0.701-8.53,1.096c-6.792,0.944-13.626,0.848-20.446,0.703
		c-3.862-0.081-7.718-0.582-11.571-0.957c-7.333-0.713-14.495-2.307-21.575-4.295c-6.523-1.832-12.891-4.107-19.11-6.798
		c-8.342-3.609-16.382-7.8-24.069-12.649c-4.911-3.098-9.547-6.577-13.757-10.586c-3.55-3.38-7.161-6.713-10.497-10.298
		c-3.958-4.254-7.639-8.767-11.464-13.146c-4.305-4.93-8.123-10.219-11.662-15.714c-4.896-7.603-8.956-15.627-12.202-24.07
		c-3.046-7.922-5.224-16.081-6.744-24.415c-0.588-3.222-0.922-6.493-1.315-9.748c-0.533-4.415-0.928-8.848-1.541-13.251
		c-0.474-3.404-2.804-4.583-5.812-4.695c-5.871-0.217-11.754-0.388-17.623-0.23c-4.221,0.112-8.52,0.006-12.611,1.452
		c-3.531,1.248-5.197,3.74-5.493,7.528c-0.416,5.325,0.447,10.536,1.286,15.746c1.047,6.504,1.991,13.034,3.344,19.477
		c1.83,8.714,4.451,17.22,7.631,25.549c3.614,9.468,7.821,18.658,13.182,27.262c3.666,5.884,7.506,11.677,11.576,17.286
		c2.88,3.971,6.162,7.673,9.47,11.307c4.066,4.466,8.17,8.926,12.581,13.042c5.062,4.725,10.423,9.135,15.754,13.562
		c5.899,4.897,12.267,9.154,18.821,13.119c9.911,5.996,20.273,11.042,31.158,15.062c8.377,3.093,16.917,5.57,25.632,7.417
		c4.784,1.014,9.645,1.707,14.499,2.332c4.498,0.578,9.025,1.123,13.55,1.241c9.577,0.252,19.162,0.32,28.742,0.24
		c3.088-0.026,6.167-0.78,9.257-1.153c1.903-0.229,3.823-0.325,5.725-0.559c3.918-0.48,7.864-0.83,11.734-1.57
		c5.087-0.973,10.146-2.141,15.155-3.457c8.598-2.261,16.896-5.381,24.972-9.105c8.439-3.892,16.634-8.237,24.257-13.556
		c5.831-4.066,11.541-8.318,17.162-12.673c7.509-5.817,14.308-12.444,20.827-19.329c6.083-6.425,11.685-13.269,16.835-20.483
		c6.225-8.722,11.804-17.829,16.316-27.538c2.85-6.129,5.401-12.41,7.778-18.74c3.237-8.623,5.495-17.549,7.27-26.581
		c0.887-4.513,1.595-9.075,2.095-13.646c0.676-6.178,1.094-12.384,1.577-18.582c0.15-1.922,0.216-3.855,0.217-5.783
		c0.012-46.45,0.009-92.899,0.009-139.348c0-1.647,0-3.294,0-4.941C437.362,99.132,437.506,99.078,437.651,99.024z"/>
	<path fill-rule="evenodd" clip-rule="evenodd" fill="#EC6708" d="M241.48,157.811c10.325,0.214,20.129,2.46,29.542,6.595
		c6.486,2.849,12.403,6.611,17.778,11.175c6.646,5.645,12.063,12.331,16.32,19.973c3.054,5.482,5.436,11.231,6.811,17.324
		c0.946,4.192,1.391,8.504,1.927,12.778c0.254,2.028,0.31,4.097,0.257,6.142c-0.128,4.997-0.737,9.938-1.866,14.822
		c-1.401,6.06-3.53,11.827-6.419,17.328c-2.465,4.693-5.424,9.041-8.854,13.085c-4.123,4.861-8.786,9.126-14.041,12.717
		c-6.225,4.255-12.981,7.382-20.28,9.34c-5.931,1.591-11.96,2.218-18.078,1.995c-7.742-0.281-15.474-0.67-23.008-2.758
		c-8.51-2.359-16.34-6.05-23.275-11.569c-8.889-7.075-15.237-16.035-19.634-26.438c-2.594-6.137-4.38-12.513-5.505-19.08
		c-0.875-5.101-1.284-10.234-1.583-15.404c-0.47-8.147,1.453-15.717,4.622-23.083c2.804-6.516,6.607-12.402,11.134-17.855
		c5.798-6.983,12.562-12.808,20.356-17.453c7.066-4.211,14.65-7.083,22.73-8.51C234.056,158.293,237.789,158.17,241.48,157.811z"/>
</g>
</svg>
